<svg width="40" height="40" viewBox="0 0 40 40" fill="none" xmlns="http://www.w3.org/2000/svg">
<path d="M39.9998 20.0002V20.0593C39.9882 24.0098 38.8067 27.8685 36.6046 31.1484C34.4025 34.4283 31.2784 36.9826 27.6263 38.489C23.9742 39.9954 19.9578 40.3865 16.0837 39.6129C12.2096 38.8393 8.65134 36.9357 5.85786 34.1422C3.06438 31.3487 1.16078 27.7905 0.387194 23.9164C-0.386392 20.0423 0.0046925 16.0258 1.51111 12.3737C3.01753 8.72163 5.5718 5.59747 8.85171 3.39535C12.1316 1.19323 15.9902 0.0118116 19.9408 0.00012207H19.9999C20.4817 0.00012207 20.959 0.00012202 21.4362 0.0546676C22.2174 0.10935 22.9946 0.21105 23.7635 0.359214C25.0229 0.597813 26.256 0.95861 27.4453 1.43649C29.9412 2.44022 32.2097 3.93574 34.1158 5.83407C36.022 7.73239 37.5268 9.99475 38.5408 12.4865C39.0324 13.6952 39.4024 14.9499 39.6453 16.232C39.7932 17.0086 39.8949 17.7933 39.9498 18.582C39.9998 19.0547 39.9998 19.5456 39.9998 20.0002Z" fill="#9C2275"/>
<path d="M11.3635 15.0002V25.0002C11.3635 25.9646 11.7466 26.8896 12.4286 27.5715C13.1105 28.2535 14.0355 28.6366 14.9999 28.6366H24.9999C25.9643 28.6366 26.8892 28.2535 27.5712 27.5715C28.2531 26.8896 28.6362 25.9646 28.6362 25.0002V15.0002C28.6362 14.0358 28.2531 13.1109 27.5712 12.4289C26.8892 11.7469 25.9643 11.3638 24.9999 11.3638H14.9999C14.0355 11.3638 13.1105 11.7469 12.4286 12.4289C11.7466 13.1109 11.3635 14.0358 11.3635 15.0002ZM23.7817 26.8184H16.2181C15.4128 26.8184 14.6405 26.4985 14.071 25.9291C13.5016 25.3596 13.1817 24.5873 13.1817 23.782V16.2184C13.1817 15.4131 13.5016 14.6408 14.071 14.0713C14.6405 13.5019 15.4128 13.182 16.2181 13.182H23.7817C24.587 13.182 25.3593 13.5019 25.9287 14.0713C26.4981 14.6408 26.818 15.4131 26.818 16.2184V23.782C26.818 24.5873 26.4981 25.3596 25.9287 25.9291C25.3593 26.4985 24.587 26.8184 23.7817 26.8184Z" fill="white"/>
<path d="M19.9999 15.9092C19.1908 15.9092 18.3998 16.1492 17.7271 16.5987C17.0543 17.0482 16.53 17.6871 16.2204 18.4346C15.9107 19.1821 15.8297 20.0047 15.9876 20.7983C16.1454 21.5918 16.535 22.3207 17.1072 22.8929C17.6793 23.465 18.4082 23.8546 19.2018 24.0125C19.9953 24.1703 20.8179 24.0893 21.5654 23.7797C22.3129 23.47 22.9518 22.9457 23.4013 22.273C23.8508 21.6002 24.0908 20.8093 24.0908 20.0002C24.0908 18.9152 23.6598 17.8746 22.8926 17.1074C22.1254 16.3402 21.0848 15.9092 19.9999 15.9092ZM19.9999 22.2729C19.5504 22.2729 19.111 22.1396 18.7372 21.8899C18.3635 21.6401 18.0722 21.2852 17.9001 20.8699C17.7281 20.4546 17.6831 19.9976 17.7708 19.5568C17.8585 19.1159 18.075 18.7109 18.3928 18.3931C18.7107 18.0752 19.1156 17.8588 19.5565 17.7711C19.9973 17.6834 20.4543 17.7284 20.8696 17.9004C21.2849 18.0724 21.6398 18.3637 21.8896 18.7375C22.1393 19.1112 22.2726 19.5507 22.2726 20.0002C22.2726 20.6029 22.0331 21.181 21.6069 21.6072C21.1807 22.0334 20.6026 22.2729 19.9999 22.2729Z" fill="white"/>
<path d="M24.5453 16.3638C25.0474 16.3638 25.4544 15.9568 25.4544 15.4547C25.4544 14.9526 25.0474 14.5456 24.5453 14.5456C24.0432 14.5456 23.6362 14.9526 23.6362 15.4547C23.6362 15.9568 24.0432 16.3638 24.5453 16.3638Z" fill="white"/>
</svg>
